<?xml version="1.0" encoding="UTF-8" standalone="no"?>
<!DOCTYPE svg PUBLIC "-//W3C//DTD SVG 1.1//EN" "http://www.w3.org/Graphics/SVG/1.1/DTD/svg11.dtd">
<svg width="100%" height="100%" viewBox="0 0 161 263" version="1.1" xmlns="http://www.w3.org/2000/svg" xmlns:xlink="http://www.w3.org/1999/xlink" xml:space="preserve" xmlns:serif="http://www.serif.com/" style="fill-rule:evenodd;clip-rule:evenodd;stroke-linejoin:round;stroke-miterlimit:2;">
    <g id="layer1" transform="matrix(1,0,0,1,-233.99216,-187.91441)">
        <path id="path2226" d="M309.824,443.587C307.125,443.442 305.59,442.801 303.415,440.909L302.459,440.077L300.488,439.979C298.711,439.89 298.349,439.82 296.802,439.256C295.858,438.913 294.63,438.417 294.073,438.154C293.515,437.891 292.568,437.495 291.967,437.275C291.367,437.055 290.314,436.56 289.628,436.175C287.08,434.745 282.084,432.376 280.316,431.759C279.311,431.408 278.118,430.926 277.664,430.688C276.935,430.306 276.622,430.246 274.968,430.174C273.451,430.108 272.836,430.005 271.724,429.631C269.694,428.947 269.743,429.027 269.746,426.386C269.747,425.167 269.8,424.091 269.863,423.996C269.926,423.901 270.223,423.7 270.523,423.549C271.757,422.93 272.239,422.18 272.239,420.881C272.239,420.072 272.192,419.951 271.697,419.484C271.097,418.919 269.392,418.009 268.931,418.009C268.172,418.009 266.579,416.735 266.334,415.932C265.991,414.814 265.985,414.047 266.312,413.094C266.488,412.58 266.788,412.034 266.979,411.88C267.17,411.726 267.688,411.325 268.131,410.989C269.065,410.28 269.349,409.639 269.193,408.598C269.013,407.396 268.302,406.382 267.088,405.597C265.706,404.703 265.292,404.151 265.067,402.899C264.797,401.401 265.031,400.647 266.163,399.365C267.244,398.14 267.47,397.557 267.366,396.265C267.265,395.004 266.818,394.172 265.811,393.372C263.983,391.919 263.63,390.998 262.967,385.96C262.623,383.34 261.92,380.422 261.177,378.526C260.06,375.676 258.366,373.449 255.853,371.529C253.345,369.613 250.832,366.719 249.785,364.543C249.112,363.144 248.567,361.282 248.384,359.759C248.021,356.732 244.873,322.669 242.841,299.793C241.092,280.094 239.484,262.548 239.26,260.726C239.134,259.697 238.803,256.468 238.526,253.552C237.597,243.773 237.865,238.238 239.588,231.64C240.217,229.233 240.93,227.462 242.256,225.012C245.41,219.185 247.703,216.299 252.042,212.69C256.899,208.651 260.523,206.415 266.78,203.597C277.208,198.902 283.214,197.218 296.022,195.398C301.891,194.564 303.526,194.48 314.035,194.48C324.544,194.48 326.179,194.564 332.048,195.398C344.888,197.222 350.844,198.892 361.29,203.597C367.549,206.416 371.171,208.651 376.028,212.69C380.356,216.289 382.664,219.192 385.79,224.967C387.157,227.493 387.729,228.904 388.413,231.438C390.2,238.056 390.486,243.631 389.546,253.552C389.27,256.468 388.973,259.381 388.887,260.024C388.702,261.412 387.19,277.806 385.544,296.284C383.123,323.466 380.066,356.591 379.686,359.759C379.504,361.282 378.959,363.144 378.286,364.543C377.239,366.719 374.725,369.613 372.218,371.529C369.705,373.449 368.01,375.676 366.893,378.526C366.15,380.422 365.447,383.34 365.103,385.96C364.441,390.998 364.087,391.919 362.259,393.372C361.253,394.172 360.805,395.004 360.704,396.265C360.601,397.557 360.827,398.14 361.908,399.365C363.04,400.647 363.274,401.401 363.004,402.899C362.778,404.151 362.364,404.703 360.982,405.597C359.768,406.382 359.058,407.396 358.878,408.598C358.721,409.639 359.006,410.28 359.94,410.989C360.382,411.325 360.901,411.726 361.092,411.88C361.282,412.034 361.583,412.58 361.759,413.094C362.085,414.047 362.079,414.814 361.737,415.932C361.491,416.735 359.898,418.009 359.14,418.009C358.679,418.009 356.974,418.919 356.374,419.484C355.879,419.951 355.832,420.072 355.832,420.881C355.832,422.219 356.308,422.928 357.664,423.609L358.327,423.942L358.327,426.272C358.327,429.043 358.386,428.944 356.347,429.631C355.234,430.005 354.62,430.108 353.103,430.174C351.432,430.247 351.139,430.304 350.377,430.703C349.908,430.949 348.728,431.422 347.756,431.755C346.057,432.336 341.046,434.714 338.443,436.175C337.756,436.56 336.704,437.055 336.103,437.275C335.503,437.495 334.555,437.891 333.998,438.154C333.44,438.417 332.212,438.913 331.269,439.256C329.723,439.819 329.358,439.891 327.591,439.979L325.628,440.077L324.489,441.044C323.218,442.122 321.721,442.967 320.43,443.334C319.443,443.615 313.148,443.765 309.824,443.587Z" style="fill:white;fill-rule:nonzero;"/>
        <path id="path2192" d="M309.824,443.587C307.125,443.442 305.59,442.801 303.415,440.909L302.459,440.077L300.488,439.979C298.711,439.89 298.349,439.82 296.802,439.256C295.858,438.913 294.63,438.417 294.073,438.154C293.515,437.891 292.568,437.495 291.967,437.275C291.367,437.055 290.314,436.56 289.628,436.175C287.08,434.745 282.084,432.376 280.316,431.759C279.311,431.408 278.118,430.926 277.664,430.688C276.935,430.306 276.622,430.246 274.968,430.174C273.451,430.108 272.836,430.005 271.724,429.631C269.694,428.947 269.743,429.027 269.746,426.386C269.747,425.167 269.8,424.091 269.863,423.996C269.926,423.901 270.223,423.7 270.523,423.549C271.757,422.93 272.239,422.18 272.239,420.881C272.239,420.072 272.192,419.951 271.697,419.484C271.097,418.919 269.392,418.009 268.931,418.009C268.172,418.009 266.579,416.735 266.334,415.932C265.991,414.814 265.985,414.047 266.312,413.094C266.488,412.58 266.788,412.034 266.979,411.88C267.17,411.726 267.688,411.325 268.131,410.989C269.065,410.28 269.349,409.639 269.193,408.598C269.013,407.396 268.302,406.382 267.088,405.597C265.706,404.703 265.292,404.151 265.067,402.899C264.797,401.401 265.031,400.647 266.163,399.365C267.244,398.14 267.47,397.557 267.366,396.265C267.265,395.004 266.818,394.172 265.811,393.372C263.983,391.919 263.63,390.998 262.967,385.96C262.623,383.34 261.92,380.422 261.177,378.526C260.06,375.676 258.366,373.449 255.853,371.529C253.345,369.613 250.832,366.719 249.785,364.543C249.112,363.144 248.567,361.282 248.384,359.759C248.021,356.732 244.873,322.669 242.841,299.793C241.092,280.094 239.484,262.548 239.26,260.726C239.134,259.697 238.803,256.468 238.526,253.552C237.597,243.773 237.865,238.238 239.588,231.64C240.217,229.233 240.93,227.462 242.256,225.012C245.41,219.185 247.703,216.299 252.042,212.69C256.899,208.651 260.523,206.415 266.78,203.597C277.208,198.902 283.214,197.218 296.022,195.398C301.891,194.564 303.526,194.48 314.035,194.48C324.544,194.48 326.179,194.564 332.048,195.398C344.888,197.222 350.844,198.892 361.29,203.597C367.549,206.416 371.171,208.651 376.028,212.69C380.356,216.289 382.664,219.192 385.79,224.967C387.157,227.493 387.729,228.904 388.413,231.438C390.2,238.056 390.486,243.631 389.546,253.552C389.27,256.468 388.973,259.381 388.887,260.024C388.702,261.412 387.19,277.806 385.544,296.284C383.123,323.466 380.066,356.591 379.686,359.759C379.504,361.282 378.959,363.144 378.286,364.543C377.239,366.719 374.725,369.613 372.218,371.529C369.705,373.449 368.01,375.676 366.893,378.526C366.15,380.422 365.447,383.34 365.103,385.96C364.441,390.998 364.087,391.919 362.259,393.372C361.253,394.172 360.805,395.004 360.704,396.265C360.6,397.557 360.827,398.14 361.908,399.365C363.04,400.647 363.274,401.401 363.004,402.899C362.778,404.151 362.364,404.703 360.982,405.597C359.768,406.382 359.058,407.396 358.878,408.598C358.721,409.639 359.006,410.28 359.94,410.989C360.382,411.325 360.901,411.726 361.092,411.88C361.282,412.034 361.583,412.58 361.759,413.094C362.085,414.047 362.079,414.814 361.737,415.932C361.491,416.735 359.898,418.009 359.14,418.009C358.679,418.009 356.974,418.919 356.374,419.484C355.879,419.951 355.832,420.072 355.832,420.881C355.832,422.219 356.308,422.928 357.664,423.609L358.327,423.942L358.327,426.272C358.327,429.043 358.386,428.944 356.347,429.631C355.234,430.005 354.62,430.108 353.103,430.174C351.432,430.247 351.139,430.304 350.377,430.703C349.908,430.949 348.728,431.422 347.756,431.755C346.057,432.336 341.046,434.714 338.443,436.175C337.756,436.56 336.704,437.055 336.103,437.275C335.503,437.495 334.555,437.891 333.998,438.154C333.44,438.417 332.212,438.913 331.269,439.256C329.723,439.819 329.358,439.891 327.591,439.979L325.628,440.077L324.489,441.044C323.217,442.122 321.721,442.967 320.43,443.334C319.443,443.615 313.148,443.765 309.824,443.587ZM319.114,414.591C321.54,414.173 323.593,413.602 325.589,412.791C326.126,412.573 326.698,412.394 326.86,412.394C327.31,412.394 330.887,410.269 332.502,409.042C335.745,406.578 337.724,404.677 338.754,403.037C338.997,402.651 339.564,401.769 340.015,401.077C341.685,398.512 343.716,394.115 344.047,392.351C344.383,390.56 345.526,388.73 346.976,387.663C348.455,386.574 349.321,386.318 351.933,386.199C353.968,386.106 354.276,386.053 355.008,385.677C356.645,384.834 357.558,383.454 358.175,380.886C358.349,380.159 358.607,379.11 358.749,378.554C359.051,377.363 361.807,371.81 362.928,370.133C363.861,368.737 366.501,366.085 368.23,364.805C371.409,362.453 372.224,361.542 372.887,359.603C373.093,359.002 373.342,357.95 373.442,357.264C373.541,356.577 375.688,333.312 378.213,305.564C380.738,277.815 382.947,254.274 383.123,253.249C384.041,247.88 383.848,242.089 382.58,237.015C381.05,230.892 377.681,224.63 373.612,220.348C372.035,218.688 367.664,215.215 365.481,213.889C364.506,213.296 363.216,212.507 362.616,212.136C361.397,211.383 358.181,209.766 356.111,208.866C350.853,206.578 339.932,204.24 330.28,203.336C328.937,203.21 327.03,203.02 326.044,202.915C324.812,202.783 321.052,202.723 314.035,202.723C307.019,202.723 303.258,202.783 302.027,202.915C301.04,203.02 299.134,203.21 297.79,203.336C290.07,204.059 281.397,205.707 275.582,207.555C272.38,208.573 268.059,210.528 265.454,212.136C264.854,212.507 263.565,213.296 262.589,213.889C260.407,215.215 256.035,218.688 254.458,220.348C250.383,224.637 247.023,230.882 245.491,237.015C244.223,242.089 244.029,247.88 244.948,253.249C245.123,254.274 247.332,277.815 249.857,305.564C252.382,333.312 254.529,356.577 254.629,357.264C254.728,357.95 254.978,359.002 255.183,359.603C255.847,361.542 256.662,362.453 259.84,364.805C261.57,366.085 264.21,368.737 265.142,370.133C266.263,371.81 269.019,377.363 269.322,378.554C269.463,379.11 269.722,380.159 269.896,380.886C270.513,383.454 271.425,384.834 273.063,385.677C273.795,386.053 274.103,386.106 276.138,386.199C278.75,386.318 279.615,386.574 281.095,387.663C282.544,388.73 283.687,390.56 284.023,392.351C284.354,394.115 286.386,398.512 288.056,401.077C288.506,401.769 289.074,402.651 289.316,403.037C290.784,405.37 295.027,408.99 298.961,411.264C300.037,411.886 301.049,412.394 301.211,412.394C301.373,412.394 301.956,412.578 302.506,412.802C304.517,413.62 306.526,414.162 309.59,414.714C310.019,414.792 311.949,414.862 313.879,414.871C316.679,414.884 317.737,414.828 319.114,414.591ZM263.758,360.907C261.753,360.65 259.747,359.149 258.881,357.257C258.45,356.314 258.289,355.048 257.817,348.842C257.273,341.706 256.945,337.589 256.607,333.636C256.412,331.363 256.253,328.801 256.253,327.944C256.253,326.522 256.296,326.293 256.738,325.361C257.666,323.402 259.3,322.204 261.712,321.714C262.398,321.575 263.275,321.364 263.661,321.246C264.047,321.128 264.667,320.988 265.038,320.935C266.587,320.716 268.492,319.278 269.14,317.84C269.475,317.097 269.506,316.818 269.501,314.609C269.493,311.51 269.078,302.123 268.585,293.945C268.227,287.998 267.776,283.745 267.394,282.725C266.787,281.104 265.451,279.755 263.576,278.872C262.599,278.411 259.966,277.959 258.262,277.959C256.989,277.959 256.681,277.783 256.573,276.992C256.523,276.623 256.466,273.959 256.445,271.072L256.409,265.822L257.033,265.708C257.96,265.54 258.198,265.495 259.138,265.308C259.61,265.214 260.347,265.078 260.776,265.006C261.205,264.933 262.363,264.727 263.349,264.546C265.503,264.152 268.536,263.632 269.234,263.538C269.512,263.501 270.845,263.29 272.197,263.07C277.507,262.205 279.522,261.905 280.738,261.798C281.167,261.761 281.614,261.696 281.732,261.654C282.476,261.392 291.23,261.238 292.084,261.472L292.513,261.59L292.513,263.887C292.514,265.151 292.56,267.827 292.617,269.835C292.719,273.438 292.724,273.48 293.012,273.11C296.924,268.07 300.558,265.034 305.692,262.516C308.588,261.096 310.374,260.576 314.893,259.841C316.784,259.533 323.881,259.581 325.498,259.913C328.305,260.489 330.433,261.325 334.277,263.365C335.503,264.015 336.555,264.547 336.616,264.547C336.754,264.547 336.745,253.743 336.606,252.46C336.464,251.149 336.358,250.68 336.041,249.965C335.739,249.286 334.832,248.267 334.048,247.727C333.325,247.229 331.672,246.644 330.705,246.542C330.243,246.494 329.619,246.42 329.319,246.378C329.019,246.337 328.142,246.267 327.37,246.222C326.598,246.178 325.75,246.102 325.486,246.053L325.006,245.963L325.066,239.464L325.127,232.965L326.092,232.787C326.623,232.689 327.479,232.6 327.993,232.589C328.508,232.578 329.385,232.504 329.943,232.423C330.5,232.343 331.237,232.267 331.58,232.255C332.519,232.221 335.772,231.809 337.273,231.533C339.457,231.132 343.253,229.857 345.77,228.678L346.86,228.168L354.426,228.262C358.587,228.314 362.214,228.401 362.485,228.454C362.792,228.515 363.008,228.667 363.058,228.857C363.146,229.195 362.644,242.691 362.392,246.768C362.304,248.183 362.16,251.411 362.072,253.942C361.983,256.472 361.837,259.736 361.748,261.195C361.581,263.927 361.269,271.056 360.599,287.473C360.387,292.662 360.141,298.031 360.052,299.403C359.963,300.776 359.849,303.967 359.798,306.495C359.748,309.023 359.678,311.137 359.644,311.192C359.61,311.247 359.576,312.512 359.567,314.003C359.556,316.043 359.612,316.908 359.793,317.494C360.404,319.472 362.732,321.019 366.119,321.698C368.605,322.196 370.237,323.378 371.177,325.361C371.619,326.293 371.662,326.522 371.662,327.944C371.662,328.801 371.502,331.363 371.308,333.636C370.969,337.589 370.642,341.706 370.098,348.842C369.6,355.375 369.48,356.272 368.953,357.376C368.414,358.505 367.207,359.753 366.114,360.311C364.54,361.113 367.229,361.074 314.269,361.059C286.687,361.051 264.356,360.984 263.758,360.907ZM327.818,356.485C330.84,355.933 333.123,354.966 334.144,353.807C334.879,352.972 335.212,351.833 335.276,349.934L335.323,348.53L324.718,348.53L324.613,350.239C324.421,353.341 324.299,353.52 322.458,353.416C320.701,353.317 320.819,353.785 320.819,346.926C320.819,340.595 320.86,340.24 321.617,339.894C322.114,339.668 323.578,339.667 324.074,339.893C324.592,340.129 324.636,340.371 324.638,343.032L324.64,345.333L335.373,345.333L335.489,343.968C335.688,341.612 335.198,339.763 334.138,338.872C332.199,337.24 328.331,336.387 322.847,336.383C316.821,336.378 312.909,337.375 311.015,339.401C310.034,340.448 309.935,341.198 310.018,346.931C310.09,351.92 310.187,352.55 311.072,353.828C312.056,355.249 314.893,356.299 318.878,356.715C320.851,356.921 326.183,356.784 327.818,356.485ZM280.191,355.977C280.19,355.741 280.051,352.39 279.881,348.53C279.71,344.67 279.571,341.354 279.57,341.161L279.569,340.81L282.679,340.81C284.389,340.81 285.82,340.757 285.857,340.693C285.895,340.629 285.89,339.716 285.845,338.666L285.764,336.755L262.074,336.755L262.185,338.666C262.246,339.716 262.326,340.629 262.364,340.693C262.401,340.757 263.83,340.81 265.539,340.81C268.636,340.81 268.646,340.811 268.716,341.161C268.755,341.354 268.934,344.389 269.114,347.906C269.294,351.423 269.483,354.774 269.535,355.353L269.628,356.406L280.192,356.406L280.191,355.977ZM307.329,356.406L307.329,352.507L299.531,352.507L299.531,348.14L306.081,348.14L306.081,344.397L299.375,344.397L299.375,340.816L302.923,340.774L306.471,340.732L306.515,338.744L306.559,336.755L297.469,336.755L288.38,336.755L288.641,345.06C288.785,349.627 288.908,354.049 288.914,354.885L288.926,356.406L307.329,356.406ZM349.651,354.105C349.707,352.84 349.798,350.98 349.852,349.973L349.95,348.14L353.072,348.14L352.967,350.83C352.909,352.31 352.818,354.17 352.764,354.963L352.667,356.406L363.291,356.406L363.388,355.275C363.462,354.417 364.565,337.114 364.565,336.815C364.565,336.782 362.119,336.755 359.128,336.755L353.691,336.755L353.589,338.744C353.534,339.837 353.445,341.416 353.392,342.253L353.296,343.773L351.668,343.773C350.192,343.773 350.048,343.748 350.118,343.5C350.161,343.35 350.245,341.771 350.304,339.991L350.411,336.755L339.626,336.755L339.551,337.262C339.475,337.771 338.976,353.831 338.984,355.509L338.988,356.406L349.548,356.406L349.651,354.105ZM303.303,326.822C303.261,325.433 303.177,324.218 303.117,324.121C303.014,323.954 302.524,323.87 299.648,323.525C298.107,323.34 297.01,322.792 295.641,321.525C294.322,320.304 293.691,319.155 293.47,317.572C293.256,316.037 292.569,282.083 292.672,278.128C292.684,277.649 292.689,276.415 292.681,275.386L292.668,273.514L291.653,275.074C289.24,278.783 286.742,284.762 285.96,288.699C285.881,289.097 285.777,289.597 285.728,289.812C285.629,290.252 285.224,293.465 285.208,293.945C285.14,295.952 285.221,301.562 285.331,302.525C285.409,303.21 285.515,304.156 285.567,304.628C285.973,308.336 286.548,311.053 287.597,314.219C288.4,316.645 289.08,318.131 290.415,320.381C291.258,321.8 293.416,324.875 293.984,325.466C294.076,325.561 294.712,326.255 295.398,327.008C297.253,329.043 300.112,331.31 302.416,332.573L303.196,333.001L303.288,331.174C303.339,330.169 303.346,328.211 303.303,326.822ZM325.03,322.101C326.955,321.76 327.629,321.583 328.628,321.155C329.327,320.855 331.812,319.277 332.288,318.83C332.431,318.696 332.927,318.291 333.39,317.931C333.853,317.571 334.506,316.995 334.842,316.651L335.452,316.026L335.573,313.407C335.639,311.967 335.814,304.197 335.961,296.142L336.228,281.496L335.074,280.383C332.457,277.859 328.85,275.482 327.125,275.145C325.825,274.891 323.58,274.935 322.363,275.238C318.459,276.211 315.251,279.422 312.399,285.211C311.311,287.419 310.627,289.516 310.226,291.871C309.507,296.093 309.389,301.371 309.923,305.408C310.202,307.51 310.324,308.075 310.949,310.164C312.584,315.624 315.358,320.122 317.874,321.395C319.815,322.377 322.163,322.609 325.03,322.101ZM274.752,255.396C268.72,254.033 264.907,250.125 263.316,243.676C262.39,239.924 263.427,234.955 265.927,231.172C267.387,228.961 270.195,227.017 273.167,226.158C277.7,224.848 282.894,226.057 287.423,229.478C288.84,230.548 289.797,231.778 290.812,233.833C292.114,236.471 292.491,237.93 292.52,240.452C292.55,243.049 292.015,245.273 290.757,247.781C290.335,248.624 289.476,249.998 289.247,250.199C289.198,250.242 288.967,250.534 288.732,250.848C287.747,252.171 284.569,254.124 281.964,255.008C280.575,255.479 280.315,255.522 278.183,255.634C276.521,255.721 276.042,255.688 274.752,255.396Z" style="fill-rule:nonzero;"/>
    </g>
</svg>
