<?xml version="1.0" encoding="UTF-8" standalone="no"?>
<svg
   height="400.75686"
   viewBox="0 0 32.57785 53.25"
   width="249.527856"
   version="1.1"
   id="svg4"
   sodipodi:docname="IdTech5_Logo.svg"
   inkscape:version="1.3.2 (091e20e, 2023-11-25, custom)"
   xmlns:inkscape="http://www.inkscape.org/namespaces/inkscape"
   xmlns:sodipodi="http://sodipodi.sourceforge.net/DTD/sodipodi-0.dtd"
   xmlns="http://www.w3.org/2000/svg"
   xmlns:svg="http://www.w3.org/2000/svg">
  <defs
     id="defs4" />
  <sodipodi:namedview
     id="namedview4"
     pagecolor="#ffffff"
     bordercolor="#000000"
     borderopacity="0.25"
     inkscape:showpageshadow="2"
     inkscape:pageopacity="0.0"
     inkscape:pagecheckerboard="0"
     inkscape:deskcolor="#d1d1d1"
     inkscape:zoom="3.0383456"
     inkscape:cx="150.4108"
     inkscape:cy="152.55012"
     inkscape:window-width="1920"
     inkscape:window-height="1057"
     inkscape:window-x="-8"
     inkscape:window-y="-8"
     inkscape:window-maximized="1"
     inkscape:current-layer="g4" />
  <g
     transform="matrix(.16473318 0 0 .16473318 -51.1513 -30.98013)"
     id="g4">
    <g
       transform="translate(-70.483228 -152.1373)"
       id="g3"
       style="fill:#ffffff">
      <path
         d="m522.08471 384.0977c-7.39882 6.16944-17.7004 6.02705-27.84375 6.25v17.78125h4.71875c8.39601 0 10.34375 2.05876 10.34375 10.8125v12.59375c-4.97028-2.67349-10.13811-6.6875-21.78125-6.6875-14.60881 0-25.95434 7.63429-35.1875 17.5625v56.75c0 3.65188 7.3096 9.25 13.8125 9.25v12.4375c-14.95151-5.7867-24.5-25.26069-24.5-45.5625 0-11.51163 4.90697-23.24487 10.6875-32.875v-14.65625h-13.0625c-2.1867 0-2.39586.0498-3 .15625l-31.125 5.5.4375 15.1875h4.4375c6.51354 0 9.6342 4.63737 9.96875 9.375l2.75 38.8125c.3299 4.67178-3.35538 8.75-8.03125 8.75-4.62297 0-10.06199 3.37908-9.65625 8.125l2.9375 34.125c.33667 3.938 1.79454 8.96875 8.75 8.96875h123.78125c8.0572 0 11.18351-2.64779 11.5625-7.34375l2.84375-35.03125c.48422-5.99977-3.5559-7.72556-8.1875-8.625-6.86491-1.33315-7.89209-6.34284-7.5625-14.09375l4.59375-107.5625zm-28.28125 60.625c6.59592 0 11.36827 4.95847 15.65625 9.1875v43.3125c-4.81425 4.86014-11.46812 9.8125-18.21875 9.8125-12.14342 0-17.5-17.63577-17.5-28.375 0-14.30853 7.09348-33.9375 20.0625-33.9375zm-.15625 79.59375c7.15923.0392 14.6875 2.53597 14.6875 11.84375h-14.65625l.0312-5.9375c0-.82508-1.17407-1.5-2.125-1.5-1.1985 0-2.75.35554-2.75 1.625v14.625c0 1.01622.5099 2.25 2.5625 2.25 1.08473 0 2.25-.44059 2.25-1.8125v-5.125h14.375c0 10.51909-9.34822 11.0625-17.3125 11.0625-12.17821 0-15.625-3.09716-15.625-7.75v-11.46875c0-7.49603 10.64383-7.78125 17.125-7.78125.47154-.0179.96022-.0339 1.4375-.0312zm-47.125.3125 23.6875.34375v5.65625h-9.28125v4.5h9.375v4.6875l-9.1875-.0937.15625 5.84375h10.25l-.0937 5.46875h-23.5l-1.40625-26.40625zm99.53125.3125-1.78125 25.9375h-13.96875l.4375-10.78125h-3.53125l-.75 10.9375h-13.90625l.53125-25.9375 14.84375-.125-.4375 9.625h3.53125l.3125-9.59375zm-133.65625.125h31.125v5.75h-7.96875l.71875 20.3125h-13.96875l-.875-20.6875h-8.6875z"
         id="path1"
         style="fill:#ffffff" />
      <path
         d="m452.70377 400.52541c0 10.88586-8.82474 19.7106-19.71061 19.7106-10.88586 0-19.7106-8.82474-19.7106-19.7106 0-10.88587 8.82474-19.71061 19.7106-19.71061 10.88587 0 19.71061 8.82474 19.71061 19.71061z"
         id="path2"
         style="fill:#ffffff" />
      <text
         xml:space="preserve"
         style="font-size:77.4335px;fill:#ffffff;stroke-width:0.806599"
         x="458.08493"
         y="622.79578"
         id="text6"><tspan
           sodipodi:role="line"
           id="tspan6"
           style="font-style:normal;font-variant:normal;font-weight:normal;font-stretch:normal;font-size:77.4335px;font-family:Impact;-inkscape-font-specification:Impact;stroke-width:0.806599;fill:#ffffff"
           x="458.08493"
           y="622.79578">4</tspan></text>
    </g>
    <path
       d="m409.375 188.0625c-66.36945.0102-101.69606 32.12479-98.6875 65.78125l13.5 150.625c1.67267 12.43417 16.5578 15.58505 17.6875 25.1875l1.5 12.875c.80987 3.02247 5.0625 4.46903 5.0625 6.40625v2.8125c0 2.13854-3.21875 2.92131-3.21875 4.40625v3.25c0 2.41721 6.0625 4.30727 6.0625 6.3125v1.90625c0 2.04521-4.0625 2.01077-4.0625 4.59375v3.03125c0 3.26978 8.53125 3.58997 8.53125 7.34375 0 3.39151-4.09375 1.86134-4.09375 4.5625v3.5c0 1.55332 2.25826 3.625 4.03125 3.625h3.34375c1.66366 0 2.48047.3246 3.75.875 10.2498 4.4437 25.6294 11.65625 28.3125 11.65625.86785 0 1.4849-.11814 2.21875-.25 2.55398 1.47454 4.29477 4.75 8.75 4.75h7.1875.28125 7.1875c4.45523 0 6.19602-3.27546 8.75-4.75.73385.13186 1.3509.25 2.21875.25 2.6831 0 18.0627-7.21255 28.3125-11.65625 1.26953-.5504 2.08634-.875 3.75-.875h3.34375c1.77299 0 4.03125-2.07168 4.03125-3.625v-3.5c0-2.70116-4.09375-1.17099-4.09375-4.5625 0-3.75378 8.53125-4.07397 8.53125-7.34375v-3.03125c0-2.58298-4.0625-2.54854-4.0625-4.59375v-1.90625c0-2.00523 6.0625-3.89529 6.0625-6.3125v-3.25c0-1.48494-3.21875-2.26771-3.21875-4.40625v-2.8125c0-1.93722 4.25263-3.38378 5.0625-6.40625l1.5-12.875c1.1297-9.60245 16.01483-12.75333 17.6875-25.1875l13.5-150.625c3.00856-33.65646-32.31805-65.77101-98.6875-65.78125h-.0312zm.21875 10.46875h.125c73.80122 0 93.24836 30.90519 90.25 63.59375l-12.375 135.0625c-.27249 2.97072-.0917 5.44509-1.625 7.125-5.43329 5.95267-12.32756 8.42397-16.15625 18.0625-2.16442 5.44881-3.32312 14.90625-8.75 14.90625h-4.90625c-3.69034 0-6.45257 3.32357-6.96875 5.25-3.98194 14.86079-14.10635 31.69313-39.3125 31.875-.13725.00099-.2681 0-.40625 0-25.21012-.17949-35.33028-17.01315-39.3125-31.875-.51618-1.92643-3.30966-5.25-7-5.25h-4.90625c-5.42688 0-6.58558-9.45744-8.75-14.90625-3.82869-9.63853-10.72296-12.10983-16.15625-18.0625-1.53335-1.67991-1.32126-4.15428-1.59375-7.125l-12.40625-135.0625c-2.99836-32.68856 16.44878-63.59375 90.25-63.59375z"
       id="path4"
       style="fill:#ffffff" />
  </g>
</svg>
